<svg width="18" height="18" viewBox="0 0 18 18" fill="none" xmlns="http://www.w3.org/2000/svg">
<path d="M10.761 9.00923L0.000999928 7.92523L0 1.07323C0.000130895 0.890255 0.0470078 0.710347 0.136184 0.550572C0.22536 0.390797 0.353877 0.256455 0.509545 0.160289C0.665213 0.064124 0.842869 0.00932417 1.02566 0.00108857C1.20845 -0.00714702 1.39031 0.0314547 1.554 0.113232L17.406 8.03923C17.5841 8.12855 17.7338 8.26565 17.8384 8.43518C17.9431 8.60472 17.9985 8.80001 17.9985 8.99923C17.9985 9.19845 17.9431 9.39375 17.8384 9.56328C17.7338 9.73282 17.5841 9.86991 17.406 9.95923L1.556 17.8852C1.39232 17.967 1.21045 18.0056 1.02766 17.9974C0.844869 17.9891 0.667213 17.9343 0.511545 17.8382C0.355877 17.742 0.22736 17.6077 0.138184 17.4479C0.0490077 17.2881 0.00213099 17.1082 0.00200009 16.9252V10.0732L10.762 9.00923H10.761Z" fill="black"/>
</svg>
